<svg xmlns="http://www.w3.org/2000/svg" xmlns:xlink="http://www.w3.org/1999/xlink" width="500" zoomAndPan="magnify" viewBox="0 0 375 374.999991" height="500" preserveAspectRatio="xMidYMid meet" version="1.0"><defs><g/><clipPath id="87fb15c0b7"><path d="M 76 195 L 108 195 L 108 223.851562 L 76 223.851562 Z M 76 195 " clip-rule="nonzero"/></clipPath></defs><path fill="#567448" d="M 87.441406 185.589844 L 102.445312 176.40625 L 109.167969 189.679688 C 110.792969 196.929688 101.894531 199.59375 94.746094 199.160156 Z M 87.441406 185.589844 " fill-opacity="1" fill-rule="evenodd"/><g clip-path="url(#87fb15c0b7)"><path fill="#567448" d="M 84.03125 195.066406 L 76.136719 209.339844 L 84.03125 223.808594 L 84.226562 218.019531 L 91.4375 218.019531 C 94.066406 218.253906 97.476562 216.488281 98.742188 213.929688 L 108 196.566406 C 104.945312 199.65625 101.019531 200.457031 96.503906 200.457031 L 84.324219 200.457031 Z M 84.03125 195.066406 " fill-opacity="1" fill-rule="evenodd"/></g><path fill="#567448" d="M 66.398438 177.472656 L 51.277344 168.496094 L 59.34375 156.03125 C 64.746094 151.058594 71.335938 157.734375 74.4375 164.34375 L 66.398438 177.476562 Z M 66.398438 177.472656 " fill-opacity="1" fill-rule="evenodd"/><path fill="#567448" d="M 76.144531 175.925781 L 92.160156 176.066406 L 100.679688 161.976562 L 95.644531 164.613281 L 92.144531 158.15625 C 91.066406 155.6875 87.90625 153.488281 85.105469 153.597656 L 65.789062 153.738281 C 69.910156 154.96875 72.5 158.097656 74.691406 162.144531 L 80.601562 173.050781 Z M 76.144531 175.925781 " fill-opacity="1" fill-rule="evenodd"/><path fill="#567448" d="M 39.707031 176.730469 L 44.390625 180.398438 L 39.980469 188.867188 C 37.777344 192.773438 41.566406 196.574219 43.976562 197.898438 C 46.351562 199.203125 50.039062 199.359375 53.484375 199.3125 L 59.6875 189.148438 L 64.371094 191.691406 L 56.242188 176.589844 Z M 39.707031 176.730469 " fill-opacity="1" fill-rule="evenodd"/><path fill="#567448" d="M 40.394531 196.347656 L 50.453125 214.976562 C 52.476562 217.5625 56.285156 218.175781 60.238281 218.082031 L 70.847656 218.082031 L 70.847656 200.441406 L 50.730469 200.300781 C 47.605469 200.488281 43.519531 199.828125 40.394531 196.347656 Z M 40.394531 196.347656 " fill-opacity="1" fill-rule="evenodd"/><g fill="#567448" fill-opacity="1"><g transform="translate(125.281271, 182.080565)"><g><path d="M 12.75 -21.34375 C 9.9375 -21.34375 7.722656 -20.441406 6.109375 -18.640625 C 4.492188 -16.835938 3.6875 -14.375 3.6875 -11.25 C 3.6875 -8.039062 4.445312 -5.550781 5.96875 -3.78125 C 7.488281 -2.019531 9.664062 -1.140625 12.5 -1.140625 C 14.382812 -1.140625 16.113281 -1.378906 17.6875 -1.859375 L 17.6875 -0.46875 C 16.207031 0.0507812 14.359375 0.3125 12.140625 0.3125 C 8.984375 0.3125 6.5 -0.703125 4.6875 -2.734375 C 2.882812 -4.773438 1.984375 -7.625 1.984375 -11.28125 C 1.984375 -13.5625 2.414062 -15.570312 3.28125 -17.3125 C 4.144531 -19.050781 5.382812 -20.390625 7 -21.328125 C 8.625 -22.273438 10.507812 -22.75 12.65625 -22.75 C 14.84375 -22.75 16.800781 -22.34375 18.53125 -21.53125 L 17.90625 -20.109375 C 16.269531 -20.929688 14.550781 -21.34375 12.75 -21.34375 Z M 12.75 -21.34375 "/></g></g></g><g fill="#567448" fill-opacity="1"><g transform="translate(147.497736, 182.080565)"><g><path d="M 22.03125 -11.25 C 22.03125 -7.6875 21.140625 -4.867188 19.359375 -2.796875 C 17.578125 -0.722656 15.125 0.3125 12 0.3125 C 8.875 0.3125 6.421875 -0.722656 4.640625 -2.796875 C 2.867188 -4.867188 1.984375 -7.695312 1.984375 -11.28125 C 1.984375 -14.84375 2.878906 -17.648438 4.671875 -19.703125 C 6.460938 -21.753906 8.914062 -22.78125 12.03125 -22.78125 C 15.15625 -22.78125 17.601562 -21.75 19.375 -19.6875 C 21.144531 -17.625 22.03125 -14.8125 22.03125 -11.25 Z M 3.6875 -11.25 C 3.6875 -8.03125 4.398438 -5.546875 5.828125 -3.796875 C 7.265625 -2.046875 9.320312 -1.171875 12 -1.171875 C 14.695312 -1.171875 16.757812 -2.035156 18.1875 -3.765625 C 19.613281 -5.503906 20.328125 -8 20.328125 -11.25 C 20.328125 -14.476562 19.613281 -16.953125 18.1875 -18.671875 C 16.757812 -20.398438 14.707031 -21.265625 12.03125 -21.265625 C 9.363281 -21.265625 7.304688 -20.394531 5.859375 -18.65625 C 4.410156 -16.914062 3.6875 -14.445312 3.6875 -11.25 Z M 3.6875 -11.25 "/></g></g></g><g fill="#567448" fill-opacity="1"><g transform="translate(174.209063, 182.080565)"><g><path d="M 3.171875 0 L 3.171875 -22.4375 L 4.734375 -22.4375 L 4.734375 -1.46875 L 15.4375 -1.46875 L 15.4375 0 Z M 3.171875 0 "/></g></g></g><g fill="#567448" fill-opacity="1"><g transform="translate(193.035217, 182.080565)"><g><path d="M 15.4375 0 L 3.171875 0 L 3.171875 -22.4375 L 15.4375 -22.4375 L 15.4375 -20.984375 L 4.734375 -20.984375 L 4.734375 -12.5 L 14.84375 -12.5 L 14.84375 -11.0625 L 4.734375 -11.0625 L 4.734375 -1.4375 L 15.4375 -1.4375 Z M 15.4375 0 "/></g></g></g><g fill="#567448" fill-opacity="1"><g transform="translate(213.073288, 182.080565)"><g><path d="M 9.015625 0 L 7.4375 0 L 7.4375 -20.953125 L 0.15625 -20.953125 L 0.15625 -22.4375 L 16.3125 -22.4375 L 16.3125 -20.953125 L 9.015625 -20.953125 Z M 9.015625 0 "/></g></g></g><g fill="#567448" fill-opacity="1"><g transform="translate(232.236945, 182.080565)"><g><path d="M 13.984375 -7.921875 L 4.859375 -7.921875 L 1.734375 0 L 0 0 L 9.015625 -22.515625 L 10.015625 -22.515625 L 18.859375 0 L 17.09375 0 Z M 5.4375 -9.328125 L 13.453125 -9.328125 L 10.40625 -17.40625 C 10.144531 -18.039062 9.835938 -18.921875 9.484375 -20.046875 C 9.203125 -19.066406 8.898438 -18.179688 8.578125 -17.390625 Z M 5.4375 -9.328125 "/></g></g></g><g fill="#567448" fill-opacity="1"><g transform="translate(125.281271, 215.830563)"><g><path d="M 3.171875 0 L 3.171875 -22.4375 L 4.734375 -22.4375 L 4.734375 0 Z M 3.171875 0 "/></g></g></g><g fill="#567448" fill-opacity="1"><g transform="translate(135.900088, 215.830563)"><g><path d="M 19.484375 0 L 17.90625 0 L 4.625 -19.921875 L 4.5 -19.921875 C 4.613281 -17.546875 4.671875 -15.753906 4.671875 -14.546875 L 4.671875 0 L 3.171875 0 L 3.171875 -22.4375 L 4.734375 -22.4375 L 18.015625 -2.546875 L 18.109375 -2.546875 C 18.015625 -4.390625 17.96875 -6.140625 17.96875 -7.796875 L 17.96875 -22.4375 L 19.484375 -22.4375 Z M 19.484375 0 "/></g></g></g><g fill="#567448" fill-opacity="1"><g transform="translate(161.261424, 215.830563)"><g><path d="M 9.015625 0 L 7.4375 0 L 7.4375 -20.953125 L 0.15625 -20.953125 L 0.15625 -22.4375 L 16.3125 -22.4375 L 16.3125 -20.953125 L 9.015625 -20.953125 Z M 9.015625 0 "/></g></g></g><g fill="#567448" fill-opacity="1"><g transform="translate(180.425076, 215.830563)"><g><path d="M 15.4375 0 L 3.171875 0 L 3.171875 -22.4375 L 15.4375 -22.4375 L 15.4375 -20.984375 L 4.734375 -20.984375 L 4.734375 -12.5 L 14.84375 -12.5 L 14.84375 -11.0625 L 4.734375 -11.0625 L 4.734375 -1.4375 L 15.4375 -1.4375 Z M 15.4375 0 "/></g></g></g><g fill="#567448" fill-opacity="1"><g transform="translate(200.463147, 215.830563)"><g><path d="M 3.171875 0 L 3.171875 -22.4375 L 4.734375 -22.4375 L 4.734375 -1.46875 L 15.4375 -1.46875 L 15.4375 0 Z M 3.171875 0 "/></g></g></g><g fill="#567448" fill-opacity="1"><g transform="translate(219.289301, 215.830563)"><g><path d="M 3.171875 0 L 3.171875 -22.4375 L 4.734375 -22.4375 L 4.734375 0 Z M 3.171875 0 "/></g></g></g><g fill="#567448" fill-opacity="1"><g transform="translate(229.908118, 215.830563)"><g><path d="M 12 -11.3125 L 20.265625 -11.3125 L 20.265625 -1.078125 C 18.097656 -0.148438 15.660156 0.3125 12.953125 0.3125 C 9.410156 0.3125 6.695312 -0.6875 4.8125 -2.6875 C 2.925781 -4.6875 1.984375 -7.519531 1.984375 -11.1875 C 1.984375 -13.46875 2.445312 -15.488281 3.375 -17.25 C 4.3125 -19.019531 5.648438 -20.382812 7.390625 -21.34375 C 9.140625 -22.300781 11.144531 -22.78125 13.40625 -22.78125 C 15.851562 -22.78125 18.046875 -22.332031 19.984375 -21.4375 L 19.359375 -20.015625 C 17.421875 -20.921875 15.40625 -21.375 13.3125 -21.375 C 10.363281 -21.375 8.019531 -20.457031 6.28125 -18.625 C 4.550781 -16.800781 3.6875 -14.34375 3.6875 -11.25 C 3.6875 -7.875 4.507812 -5.332031 6.15625 -3.625 C 7.800781 -1.925781 10.21875 -1.078125 13.40625 -1.078125 C 15.476562 -1.078125 17.234375 -1.367188 18.671875 -1.953125 L 18.671875 -9.828125 L 12 -9.828125 Z M 12 -11.3125 "/></g></g></g><g fill="#567448" fill-opacity="1"><g transform="translate(255.330823, 215.830563)"><g><path d="M 15.4375 0 L 3.171875 0 L 3.171875 -22.4375 L 15.4375 -22.4375 L 15.4375 -20.984375 L 4.734375 -20.984375 L 4.734375 -12.5 L 14.84375 -12.5 L 14.84375 -11.0625 L 4.734375 -11.0625 L 4.734375 -1.4375 L 15.4375 -1.4375 Z M 15.4375 0 "/></g></g></g><g fill="#567448" fill-opacity="1"><g transform="translate(275.3689, 215.830563)"><g><path d="M 19.484375 0 L 17.90625 0 L 4.625 -19.921875 L 4.5 -19.921875 C 4.613281 -17.546875 4.671875 -15.753906 4.671875 -14.546875 L 4.671875 0 L 3.171875 0 L 3.171875 -22.4375 L 4.734375 -22.4375 L 18.015625 -2.546875 L 18.109375 -2.546875 C 18.015625 -4.390625 17.96875 -6.140625 17.96875 -7.796875 L 17.96875 -22.4375 L 19.484375 -22.4375 Z M 19.484375 0 "/></g></g></g><g fill="#567448" fill-opacity="1"><g transform="translate(300.730243, 215.830563)"><g><path d="M 9.015625 0 L 7.4375 0 L 7.4375 -20.953125 L 0.15625 -20.953125 L 0.15625 -22.4375 L 16.3125 -22.4375 L 16.3125 -20.953125 L 9.015625 -20.953125 Z M 9.015625 0 "/></g></g></g><g fill="#567448" fill-opacity="1"><g transform="translate(319.893899, 215.830563)"><g><path d="M 15.4375 0 L 3.171875 0 L 3.171875 -22.4375 L 15.4375 -22.4375 L 15.4375 -20.984375 L 4.734375 -20.984375 L 4.734375 -12.5 L 14.84375 -12.5 L 14.84375 -11.0625 L 4.734375 -11.0625 L 4.734375 -1.4375 L 15.4375 -1.4375 Z M 15.4375 0 "/></g></g></g><g fill="#567448" fill-opacity="1"><g transform="translate(339.921882, 215.830563)"><g/></g></g></svg>